<svg xmlns="http://www.w3.org/2000/svg" viewBox="0 0 900 560" role="img" aria-labelledby="title desc">
  <title id="title">O'LAB CBD Fidélité Loyauté</title>
  <desc id="desc">Logo premium noir, or et vert O'LAB CBD Fidélité Loyauté avec feuille et personnage alien.</desc>
  <defs>
    <radialGradient id="bg" cx="50%" cy="45%" r="68%">
      <stop offset="0" stop-color="#15210d"/>
      <stop offset=".52" stop-color="#050705"/>
      <stop offset="1" stop-color="#000"/>
    </radialGradient>
    <linearGradient id="gold" x1="0" x2="1" y1="0" y2="1">
      <stop offset="0" stop-color="#fff9b3"/>
      <stop offset=".16" stop-color="#f4d15e"/>
      <stop offset=".5" stop-color="#8d5c12"/>
      <stop offset=".74" stop-color="#ffe477"/>
      <stop offset="1" stop-color="#5d3b08"/>
    </linearGradient>
    <linearGradient id="silver" x1="0" x2="1">
      <stop offset="0" stop-color="#fff"/>
      <stop offset=".48" stop-color="#9f9f9f"/>
      <stop offset="1" stop-color="#f4f4f4"/>
    </linearGradient>
    <filter id="glow" x="-35%" y="-35%" width="170%" height="170%">
      <feGaussianBlur stdDeviation="5" result="blur"/>
      <feColorMatrix in="blur" type="matrix" values="0 0 0 0 0.45 0 0 0 0 1 0 0 0 0 0.08 0 0 0 1 0"/>
      <feMerge><feMergeNode/><feMergeNode in="SourceGraphic"/></feMerge>
    </filter>
    <filter id="hardShadow" x="-20%" y="-20%" width="140%" height="140%">
      <feDropShadow dx="0" dy="6" stdDeviation="5" flood-color="#000" flood-opacity=".75"/>
    </filter>
  </defs>
  <rect width="900" height="560" fill="url(#bg)"/>
  <circle cx="465" cy="286" r="247" fill="none" stroke="url(#gold)" stroke-width="7" filter="url(#glow)"/>
  <circle cx="465" cy="286" r="226" fill="none" stroke="#73ff28" stroke-opacity=".42" stroke-width="2"/>
  <path d="M210 143c74-76 191-112 307-87 76 16 143 58 190 119" fill="none" stroke="url(#gold)" stroke-width="5" filter="url(#glow)"/>
  <g filter="url(#glow)" transform="translate(451 64)">
    <path d="M0 128C-10 94-8 54 0 0c9 54 11 94 0 128Z" fill="#b8ff38" stroke="#fff27a" stroke-width="2"/>
    <path d="M-6 126C-38 98-60 68-84 25c43 24 73 50 84 101Z" fill="#7ed91d" stroke="#fff27a" stroke-width="2"/>
    <path d="M8 126C40 98 62 68 86 25c-43 24-73 50-86 101Z" fill="#7ed91d" stroke="#fff27a" stroke-width="2"/>
    <path d="M-10 116C-54 112-89 95-130 66c55-3 97 8 120 50Z" fill="#5abb19" stroke="#f5df5d" stroke-width="2"/>
    <path d="M10 116C54 112 89 95 130 66c-55-3-97 8-120 50Z" fill="#5abb19" stroke="#f5df5d" stroke-width="2"/>
    <path d="M0 128v34" stroke="#f9e86d" stroke-width="4"/>
  </g>
  <g filter="url(#hardShadow)">
    <text x="452" y="295" text-anchor="middle" font-family="Georgia, 'Times New Roman', serif" font-size="146" font-weight="900" fill="url(#gold)" stroke="#fff6a7" stroke-width="1.4">O'LAB</text>
    <text x="455" y="360" text-anchor="middle" font-family="Arial Black, Arial, sans-serif" font-size="54" letter-spacing="18" fill="#9dff4d" stroke="#e7ffbf" stroke-width=".7">CBD</text>
    <text x="455" y="432" text-anchor="middle" font-family="Arial Black, Arial, sans-serif" font-size="58" letter-spacing="10" fill="url(#silver)" stroke="#fff" stroke-width=".7">FIDÉLITÉ</text>
    <text x="455" y="490" text-anchor="middle" font-family="Arial Black, Arial, sans-serif" font-size="36" letter-spacing="20" fill="url(#gold)">LOYAUTÉ</text>
  </g>
  <g transform="translate(92 300)" filter="url(#glow)">
    <ellipse cx="44" cy="40" rx="38" ry="46" fill="#89df40" stroke="#c9ff7f" stroke-width="3"/>
    <ellipse cx="26" cy="33" rx="13" ry="18" fill="#050705"/>
    <ellipse cx="62" cy="33" rx="13" ry="18" fill="#050705"/>
    <path d="M31 67c11 8 23 8 34 0" fill="none" stroke="#1b3b13" stroke-width="4" stroke-linecap="round"/>
    <path d="M25 83h42l15 90H12z" fill="#111" stroke="#73ff28" stroke-width="2"/>
    <text x="47" y="126" text-anchor="middle" font-family="Arial Black, Arial" font-size="18" fill="#9dff4d">O'LAB</text>
    <path d="M5 96c-29-5-37-34-20-43 13-6 29 8 35 27" fill="#7ad739" stroke="#c9ff7f" stroke-width="3"/>
    <circle cx="-17" cy="48" r="5" fill="#0b0b0b"/>
  </g>
  <g transform="translate(104 108)" filter="url(#glow)" opacity=".95">
    <ellipse cx="0" cy="0" rx="80" ry="22" fill="#1c1c1c" stroke="url(#gold)" stroke-width="3"/>
    <ellipse cx="0" cy="-10" rx="43" ry="20" fill="#303030" stroke="#eee" stroke-width="2"/>
    <path d="M-22 12h44l-28 108h-18z" fill="#8cff29" opacity=".35"/>
    <circle cx="-42" cy="2" r="4" fill="#9dff4d"/><circle cx="-10" cy="6" r="4" fill="#9dff4d"/><circle cx="28" cy="4" r="4" fill="#9dff4d"/>
  </g>
  <g transform="translate(768 108)" filter="url(#glow)" opacity=".95">
    <ellipse cx="0" cy="0" rx="80" ry="22" fill="#1c1c1c" stroke="url(#gold)" stroke-width="3"/>
    <ellipse cx="0" cy="-10" rx="43" ry="20" fill="#303030" stroke="#eee" stroke-width="2"/>
    <path d="M-22 12h44l-28 108h-18z" fill="#8cff29" opacity=".35"/>
    <circle cx="-42" cy="2" r="4" fill="#9dff4d"/><circle cx="-10" cy="6" r="4" fill="#9dff4d"/><circle cx="28" cy="4" r="4" fill="#9dff4d"/>
  </g>
  <text x="455" y="532" text-anchor="middle" font-family="Arial" font-size="22" letter-spacing="10" fill="#f4d15e">☆ ☆ ☆ ☆ ☆</text>
</svg>
